<svg width="101" height="29" viewBox="0 0 101 29" fill="none" xmlns="http://www.w3.org/2000/svg">
<path fill-rule="evenodd" clip-rule="evenodd" d="M82.1242 19.0782L82.0812 19.8195C82.0812 21.2774 82.7199 22.3523 83.9945 23.0442C85.269 23.7361 86.9789 24.0821 89.127 24.0821C91.2752 24.0821 92.9736 23.7411 94.2195 23.0615C95.4654 22.382 96.0869 21.4504 96.0869 20.2643C96.0869 19.0782 95.6573 18.2059 94.7981 17.6499C93.9388 17.0939 92.859 16.6442 91.5558 16.2983C90.2526 15.9523 88.8406 15.6311 87.3226 15.3346C85.8046 15.038 84.3955 14.618 83.0923 14.0743C81.7891 13.5307 80.7064 12.8017 79.8472 11.8875C78.9879 10.9732 78.5583 9.82413 78.5583 8.44034C78.5583 7.05655 78.839 5.93223 79.3975 5.06736C79.956 4.20249 80.7064 3.48589 81.6516 2.91755C83.5133 1.78087 86.0051 1.21252 89.127 1.21252C92.163 1.21252 94.6119 1.76851 96.4736 2.88048C98.5071 4.09129 99.5239 5.90752 99.5239 8.32914V8.73192H99.5296C99.5296 8.73192 99.5268 8.73934 99.5239 8.75416V8.77393H99.5211C99.4552 9.1347 98.8995 11.8306 96.8459 13.4887C95.411 12.7153 93.0337 12.2112 93.0337 12.2112C93.8271 11.885 94.0305 11.5514 94.6778 10.6766C95.1819 9.9971 95.3279 9.14706 95.3165 8.77393H95.3136V8.74181V8.73686V8.21794C95.3136 7.00713 94.7408 6.08543 93.5951 5.45531C92.4495 4.8252 90.9887 4.51137 89.213 4.51137C86.2056 4.51137 84.2293 5.12914 83.2842 6.36466C82.9405 6.78474 82.7686 7.2913 82.7686 7.88435C82.7686 8.87277 83.1982 9.62644 84.0575 10.1454C84.9167 10.6643 85.9994 11.0967 87.3026 11.4427C88.6058 11.7886 90.0149 12.1148 91.5329 12.4237C93.0509 12.7325 94.463 13.1526 95.7661 13.6839C97.0693 14.2152 98.1491 14.9318 99.0084 15.8337C99.8676 16.7356 100.297 17.9292 100.297 19.4118C100.297 20.9191 100.011 22.1719 99.438 23.1727C98.8652 24.1735 98.0775 24.984 97.0751 25.6018C95.1561 26.7879 92.4924 27.3809 89.0841 27.3809C83.9 27.3809 80.463 26.0218 78.7731 23.3037C78.1716 22.34 77.8709 21.1662 77.8709 19.7824L77.9139 19.0411H77.9167L78.0256 9.52019C78.3149 11.4303 79.5293 13.202 82.1213 14.272L82.1242 19.0411V19.056V19.0782Z" fill="#333333"/>
<path fill-rule="evenodd" clip-rule="evenodd" d="M59.5264 27.1678C59.5264 27.195 59.5121 27.2197 59.4892 27.2345C59.4634 27.2494 59.4348 27.2543 59.4061 27.2494C57.5845 26.7996 56.0007 26.0064 54.6516 24.8722C52.2744 22.846 51.0858 19.9796 51.0858 16.2731V12.9372C51.0858 9.23065 52.2744 6.36426 54.6516 4.33802C56.8857 2.46005 59.7642 1.52106 63.2871 1.52106C66.81 1.52106 69.6885 2.46005 71.9225 4.33802C74.2998 6.36426 75.4884 9.23065 75.4884 12.9372V16.2731C75.4884 19.9796 74.2998 22.846 71.9225 24.8722C70.5706 26.0064 68.9868 26.7996 67.168 27.2469C67.1394 27.2543 67.1079 27.2494 67.085 27.2345C67.0592 27.2197 67.0449 27.195 67.0449 27.1678C67.0449 26.5748 67.0449 23.7282 67.0449 23.7282C67.7953 23.4267 68.4454 23.019 69.0011 22.5001C70.5191 21.1163 71.2781 19.0406 71.2781 16.2731V12.9372C71.2781 8.83529 69.6885 6.29013 66.5093 5.30172C65.5068 4.98049 64.4327 4.81987 63.2871 4.81987C62.1128 4.81987 61.0387 4.97555 60.0649 5.28443C59.0911 5.5933 58.2605 6.06774 57.5731 6.71021C56.0551 8.09398 55.2961 10.1696 55.2961 12.9372V16.2731C55.2961 20.1378 56.7052 22.6187 59.5264 23.7207V27.1678Z" fill="#333333"/>
<path fill-rule="evenodd" clip-rule="evenodd" d="M63.2891 11.0517L64.2515 13.6092H67.3677L64.8472 15.1882L65.8096 17.7458L63.2891 16.1668L60.7687 17.7458L61.731 15.1882L59.2106 13.6092H62.3268L63.2891 11.0517Z" fill="#333333"/>
<path fill-rule="evenodd" clip-rule="evenodd" d="M41.1557 16.7265C40.7489 16.7488 38.0681 17.0206 38.0395 20.5937L35.4273 20.6628C35.4273 20.6628 33.5656 13.4623 41.2187 13.4623L49.3243 13.4648C49.3243 13.4648 49.5419 13.5142 49.519 13.7168C48.571 22.185 49.2297 16.2397 48.3619 23.7467C46.5288 26.02 41.6626 27.2531 38.0251 27.2531C34.359 27.2531 31.4662 26.3141 29.3467 24.4361C27.0554 22.4346 25.9097 19.5682 25.9097 15.8369V12.5011C25.9097 8.79454 27.0554 5.92816 29.3467 3.90192C31.4948 2.02395 34.3876 1.08496 38.0251 1.08496C41.2903 1.08496 43.9396 1.85098 45.9732 3.38301C48.2072 5.08801 49.3243 7.42312 49.3243 10.3883H45.1139C45.1139 8.36211 44.4265 6.81773 43.0517 5.75519C41.8488 4.84091 40.1733 4.38377 38.0251 4.38377C34.2444 4.38377 31.8099 5.85403 30.7215 8.79454C30.3205 9.83237 30.12 11.0679 30.12 12.5011V15.8369C30.12 19.9388 31.681 22.484 34.803 23.4724C35.7768 23.7936 36.8508 23.9542 38.0251 23.9542C40.4883 23.9542 42.2985 23.423 43.4584 22.3604C44.6184 21.2979 45.1999 19.5805 45.1999 17.2084V16.7265H41.1557Z" fill="#333333"/>
<path fill-rule="evenodd" clip-rule="evenodd" d="M36.3224 14.5911C33.9692 12.503 35.0555 7.93518 35.0555 7.93518L37.6032 8.00311C37.6356 11.7677 40.4265 12.7228 40.4265 12.7228C40.4265 12.7228 40.4543 13.0385 40.4218 13.0385C39.0299 13.0385 37.5684 13.3842 36.3224 14.5911Z" fill="#333333"/>
<path d="M23.8812 12.493H8.46399V14.7972H23.8812V12.493Z" fill="#333333"/>
<path fill-rule="evenodd" clip-rule="evenodd" d="M13.5499 27.1478L16.1019 26.8893V8.91041L14.8048 8.00427L13.5499 8.91041L13.5499 27.1478Z" fill="#333333"/>
<path fill-rule="evenodd" clip-rule="evenodd" d="M12.9899 27.1417C12.546 27.2183 6.0558 26.2769 3.93632 24.3989C1.64499 22.3974 0.499329 19.531 0.499329 15.7997V12.4638C0.499329 8.75728 1.64499 5.89088 3.93632 3.86464C6.08444 1.98666 8.97725 1.04767 12.6147 1.04767C15.9658 1.04767 19.1422 1.6086 21.1757 3.28889C23.3811 5.06804 23.9998 6.49135 23.9998 9.77781H19.7895C19.7236 8.65103 19.9642 6.71374 17.6241 5.39915C16.1634 4.57877 14.8201 4.3465 12.6147 4.3465C8.83404 4.3465 6.3995 5.81676 5.31112 8.75728C4.91014 9.79512 4.70965 11.0306 4.70965 12.4638V15.7997C4.70965 19.9016 6.27061 22.4468 9.39255 23.4352C10.3664 23.7564 11.4118 23.9541 12.5288 23.917C13.1962 23.8923 12.8209 23.8899 13.0787 23.875L12.9899 27.1417ZM16.5787 23.1584C17.1745 22.9138 18.1655 22.6321 18.5922 22.2565C19.0906 21.8142 19.7637 21.2137 19.6892 17.1711H23.8165C23.8165 20.4576 22.8684 22.9904 20.6057 24.7695C19.3885 25.7431 18.618 25.9062 16.6274 26.7735L16.5787 23.1584Z" fill="#333333"/>
</svg>
