<svg width="78" height="64" viewBox="0 0 78 64" fill="none" xmlns="http://www.w3.org/2000/svg">
<path d="M41.418 0.978714C39.1081 0.978714 36.8938 1.89542 35.2605 3.52871C33.6285 5.16071 32.7105 7.37631 32.7105 9.68486C32.7105 17.8268 32.7105 28.7408 32.7105 28.7408C32.7105 36.0783 27.3562 41.2338 21.1097 41.2338C14.8631 41.2338 9.50879 36.0783 9.50879 28.7408V4.21689C9.50879 3.63717 9.1718 3.11297 8.64501 2.87281C8.11952 2.63266 7.50106 2.72175 7.06466 3.10134C5.98527 4.03742 4.6993 5.15426 3.52952 6.17038C1.37332 8.04254 0.177728 10.7862 0.274563 13.6396C0.469525 19.4304 0.783271 28.7408 0.783271 28.7408C0.783271 41.2338 9.50879 49.563 21.1097 49.563C32.7105 49.563 41.4361 41.2338 41.4361 28.7408V0.978714H41.418Z" fill="#333333"/>
<path d="M41.0624 56.5759C41.798 55.7704 42.2053 54.7179 42.2053 53.6276C42.2053 48.2252 42.2053 31.7624 42.2053 31.7624C42.2053 23.829 48.175 18.2535 55.1393 18.2535C62.1036 18.2535 68.0732 23.829 68.0732 31.7624V62.157C68.0732 62.809 68.4662 63.3967 69.0679 63.6452C69.6696 63.8936 70.3635 63.7554 70.8227 63.2934C72.6523 61.4563 74.9771 59.1236 76.4267 57.6676C77.3062 56.7839 77.8014 55.5876 77.8014 54.341C77.8014 48.5379 77.8014 31.7624 77.8014 31.7624C77.8014 18.2535 68.0732 9.2494 55.1393 9.2494C42.2053 9.2494 32.4772 18.2535 32.4772 31.7624C32.4772 31.7624 32.5621 52.4438 32.5995 61.5791C32.6024 62.2617 33.0242 62.8732 33.6604 63.1189C34.2981 63.3646 35.0208 63.1942 35.4814 62.6889C37.3528 60.6396 39.6934 58.0752 41.0624 56.5759Z" fill="#333333"/>
</svg>
