<?xml version="1.0" encoding="UTF-8" standalone="no"?>
<!DOCTYPE svg PUBLIC "-//W3C//DTD SVG 1.1//EN" "http://www.w3.org/Graphics/SVG/1.1/DTD/svg11.dtd">
<svg width="100%" height="100%" viewBox="0 0 147 140" version="1.1" xmlns="http://www.w3.org/2000/svg" xmlns:xlink="http://www.w3.org/1999/xlink" xml:space="preserve" xmlns:serif="http://www.serif.com/" style="fill-rule:evenodd;clip-rule:evenodd;stroke-linejoin:round;stroke-miterlimit:2;">
    <g transform="matrix(1,0,0,1,-361.902352,-0.238866)">
        <g id="Page-1" serif:id="Page 1" transform="matrix(1,0,0,1,361.902352,0.238866)">
            <rect x="0" y="0" width="147" height="139.5" style="fill:none;"/>
            <g id="Layer-1" serif:id="Layer 1" transform="matrix(1,0,0,1,3.402352,0.988866)">
                <g transform="matrix(0.806258,0,0,0.806258,10.834575,14.179236)">
                    <g transform="matrix(1,0,0,1,46.6523,40.5963)">
                        <path d="M0,54.203C4.6,54.203 8.4,53.803 12,52.403C21.501,49.103 27.401,40.002 27.401,27.101C27.401,14.101 21.501,5 12.101,1.6C8.2,0.2 4.6,-0 0,-0L-0.801,-0L-0.801,54.203L0,54.203ZM-19.602,54.603L-10.801,54.603L-10.801,-0.5L-19.602,-0.5L-19.602,-8.201L0.5,-8.201C6.4,-8.201 10.8,-7.901 15.501,-6.501C29.001,-2.3 37.802,9.9 37.802,27.101C37.802,44.203 29.302,56.103 15.501,60.504C10.9,62.004 6.2,62.404 0.6,62.404L-19.602,62.404L-19.602,54.603Z" style="fill:white;fill-rule:nonzero;"/>
                    </g>
                    <g transform="matrix(1,0,0,1,50.7524,40.1957)">
                        <path d="M0,55.004L23.801,55.004L23.801,-0.1L0,-0.1L0,-7.8L-2.298,-7.8L18.702,-0.1L23.801,-0.1L23.801,23.402L50.403,23.402L50.403,-0.1L41.503,-0.1L41.503,-7.8L69.205,-7.8L69.205,-0.1L60.404,-0.1L60.404,55.004L69.205,55.004L69.205,62.804L41.503,62.804L41.503,55.004L50.403,55.004L50.403,31.602L23.801,31.602L23.801,55.004L20.702,55.004L4.702,61.804L0,62.804L0,55.004Z" style="fill:white;fill-rule:nonzero;"/>
                    </g>
                </g>
                <g transform="matrix(0.9375,0,0,1,-338.652352,-0.238866)">
                    <rect x="372" y="9" width="128" height="120" style="fill:white;fill-opacity:0;"/>
                    <path d="M500,9L500,129L372,129L372,9L500,9ZM494.667,14L377.333,14L377.333,124L494.667,124L494.667,14Z" style="fill:white;"/>
                </g>
            </g>
        </g>
    </g>
</svg>
