<svg width="45" height="67" viewBox="0 0 45 67" fill="none" xmlns="http://www.w3.org/2000/svg">
<path fill-rule="evenodd" clip-rule="evenodd" d="M28.9286 3.20574H16.0714C8.97062 3.20574 3.21429 8.94678 3.21429 16.0287V50.9713C3.21429 58.0532 8.97062 63.7943 16.0714 63.7943H28.9286C36.0294 63.7943 41.7857 58.0532 41.7857 50.9713V16.0287C41.7857 8.94678 36.0294 3.20574 28.9286 3.20574ZM16.0714 0C7.19542 0 0 7.1763 0 16.0287V50.9713C0 59.8237 7.19542 67 16.0714 67H28.9286C37.8046 67 45 59.8237 45 50.9713V16.0287C45 7.1763 37.8046 0 28.9286 0H16.0714Z" fill="#E67E22"/>
<path d="M20 7.68421C20 6.20176 21.1193 5 22.5 5C23.8807 5 25 6.20176 25 7.68421V20.3158C25 21.7982 23.8807 23 22.5 23C21.1193 23 20 21.7982 20 20.3158V7.68421Z" fill="#E67E22"/>
<path fill-rule="evenodd" clip-rule="evenodd" d="M7 33C7 32.4477 7.36913 32 7.82447 32H37.1755C37.6309 32 38 32.4477 38 33C38 33.5523 37.6309 34 37.1755 34H7.82447C7.36913 34 7 33.5523 7 33Z" fill="#E67E22"/>
</svg>
